<svg xmlns="http://www.w3.org/2000/svg" width="21" height="21" viewBox="0 0 21 21">
    <circle class="back" cx="10.3" cy="10.3" r="9.7" fill="transparent" stroke="currentColor"/>
    <path class="icon" fill="currentColor" d="M13.937 7.925a.373.373 0 0 1-.372.372h-.877a.372.372 0 0 1-.372-.372v-.877c0-.205.167-.372.372-.372h.877c.206 0 .372.167.372.372v.877zm0 5.638a.372.372 0 0 1-.372.371H7.052a.372.372 0 0 1-.373-.371V9.499h.766a3.009 3.009 0 0 0-.081.391c-.02.136-.033.274-.033.415a2.978 2.978 0 1 0 5.955 0c0-.141-.012-.28-.033-.415a2.905 2.905 0 0 0-.08-.391h.764v4.064zm-3.629-5.118a1.86 1.86 0 1 1 .002 3.72 1.86 1.86 0 0 1-.002-3.72zm3.723-2.978H6.586c-.616 0-1.116.5-1.116 1.116v7.444c0 .617.5 1.117 1.116 1.117h7.445c.617 0 1.116-.5 1.116-1.117V6.583c0-.616-.5-1.116-1.116-1.116z"/>
</svg>