<svg xmlns="http://www.w3.org/2000/svg" width="165" height="46" viewBox="0 0 165 46">
    <path fill="currentColor" d="M13.935 44.134c-.047 0-.09-.002-.13-.007a1.089 1.089 0 0 0-.13-.007c-.096 0-.321.056-.678.167-.355.111-.807.237-1.352.376-.547.139-1.168.259-1.864.361-.697.103-1.425.153-2.184.153-.997 0-1.955-.074-2.873-.223-.917-.147-1.73-.377-2.434-.688-.703-.31-1.26-.698-1.672-1.161A2.375 2.375 0 0 1 0 41.477c0-.612.206-1.152.618-1.621.411-.468.969-.86 1.672-1.175.705-.315 1.517-.552 2.434-.71a16.903 16.903 0 0 1 2.873-.236c.807 0 1.539.037 2.196.111.656.075 1.23.154 1.72.237.491.083.88.162 1.164.237.285.073.459.11.522.11a.303.303 0 0 0 .202-.07l.131-.11.356.167-1.852 1.682-.237-.097a.282.282 0 0 0-.013-.083.916.916 0 0 0-.035-.098c-.032-.101-.19-.206-.475-.313a7.044 7.044 0 0 0-1.056-.285c-.42-.083-.863-.152-1.33-.209a10.713 10.713 0 0 0-3.204.083 6.42 6.42 0 0 0-1.59.489c-.452.213-.812.475-1.081.785-.27.31-.403.666-.403 1.064 0 .4.133.753.403 1.065.27.31.63.572 1.08.786.451.212.981.374 1.591.487.609.11 1.246.166 1.91.166.507 0 1.037-.034 1.591-.104.554-.07 1.06-.158 1.52-.265a6.777 6.777 0 0 0 1.151-.361c.309-.135.463-.263.463-.383 0-.064-.032-.12-.096-.167l.333-.111 1.567 1.475-.19.11zM31.604 42.056l-2.044-2.509-2.289 2.51h4.333zm-9.176 2.508c.211-.018.377-.075.5-.175.12-.099.238-.211.352-.337l4.503-5.246c.113-.117.215-.225.304-.323.09-.1.134-.184.134-.257 0-.09-.057-.154-.171-.189a2.392 2.392 0 0 0-.364-.081v-.243h4.113v.243a3.33 3.33 0 0 0-.34.074c-.115.032-.17.097-.17.196 0 .073.027.144.084.215.057.073.142.167.256.284l5.063 5.488c.08.1.19.171.328.216.137.045.296.09.474.135v.243H33.21v-.243a.957.957 0 0 0 .243-.04c.098-.027.145-.068.145-.122 0-.09-.064-.207-.193-.35l-.926-.998h-5.939l-.876.957c-.162.19-.243.324-.243.405 0 .1.154.148.462.148v.243h-3.456v-.243zM53.532 40.87c.576 0 1.057-.025 1.442-.075.384-.05.688-.119.913-.209.224-.09.384-.195.481-.317a.63.63 0 0 0 .144-.398.628.628 0 0 0-.144-.397c-.097-.122-.257-.227-.48-.317-.226-.09-.53-.16-.914-.21a11.55 11.55 0 0 0-1.442-.074h-4.158v1.996h4.158zm.625-3.157c.769 0 1.466.039 2.09.115.625.076 1.162.198 1.61.364.45.166.794.382 1.034.647.241.266.36.592.36.979 0 .592-.311 1.046-.936 1.362-.625.314-1.467.526-2.524.633l3.196 2.563c.113.09.245.143.397.162.152.018.293.026.42.026v.243h-4.493v-.243c.143 0 .267-.013.372-.04.104-.028.156-.063.156-.108s-.032-.097-.096-.155a4.754 4.754 0 0 0-.29-.236l-2.642-2.104h-3.438v2.4c0 .081.053.142.157.182.103.041.292.061.564.061v.243h-4.158v-.243c.465 0 .697-.081.697-.243v-6.122c0-.162-.232-.243-.697-.243v-.243h8.22zM75.712 43.648c.772 0 1.444-.037 2.019-.109.574-.071 1.05-.2 1.428-.384.378-.184.66-.43.85-.735.188-.306.283-.692.283-1.16 0-.467-.095-.853-.283-1.16-.19-.305-.472-.55-.85-.734-.377-.185-.854-.313-1.428-.384a16.29 16.29 0 0 0-2.019-.109h-3.817v4.775h3.817zm.985-5.934c.902 0 1.744.072 2.524.215.78.144 1.456.363 2.032.655.573.291 1.025.66 1.353 1.105.328.445.493.969.493 1.571 0 .603-.165 1.127-.493 1.572-.328.445-.78.814-1.353 1.105-.576.292-1.253.51-2.032.655a13.93 13.93 0 0 1-2.524.215h-8.175v-.242c.378 0 .567-.082.567-.244V38.2c0-.161-.19-.243-.567-.243v-.242h8.175zM92.187 44.565c.422 0 .633-.082.633-.244V38.2c0-.162-.21-.243-.633-.243v-.242h4.044v.242c-.423 0-.634.08-.634.243v6.122c0 .162.21.244.634.244v.242h-4.044v-.242zM105.633 44.565c.306 0 .459-.082.459-.244V38.2c0-.162-.153-.243-.46-.243v-.242h4.14v.242c-.13 0-.194.045-.194.135 0 .072.162.198.484.378l6.949 4.018V38.2c0-.162-.21-.243-.63-.243v-.242h3.655v.242c-.306 0-.46.08-.46.243v6.122c0 .162.154.244.46.244v.242h-3.921v-.242c.21 0 .314-.04.314-.122 0-.062-.13-.166-.387-.31l-7.384-4.289v4.477c0 .162.185.244.556.244v.242h-3.581v-.242zM137.83 42.097l-2.08-2.471-2.327 2.471h4.407zm-9.334 2.471c.214-.017.384-.076.507-.173.124-.097.244-.207.36-.332l4.58-5.168c.114-.115.219-.222.31-.319.09-.097.135-.18.135-.253 0-.088-.058-.15-.173-.185a2.37 2.37 0 0 0-.371-.08v-.239h4.184v.239a3.44 3.44 0 0 0-.347.073c-.116.03-.173.096-.173.192 0 .072.029.143.086.213.058.071.145.164.26.28l5.15 5.407a.71.71 0 0 0 .335.213c.14.044.3.088.482.132v.24h-4.357v-.24c.066 0 .148-.013.247-.04.1-.026.149-.066.149-.12 0-.088-.067-.203-.197-.345l-.942-.982h-6.04l-.892.943c-.165.186-.247.319-.247.398 0 .097.156.146.469.146v.24h-3.515v-.24zM164.047 45.136c0-.137-.077-.215-.232-.233a5.262 5.262 0 0 0-.595-.027h-11.575v-.247c.486 0 .73-.083.73-.248V38.16c0-.165-.244-.246-.73-.246v-.247h4.183v.247c-.454 0-.681.081-.681.246v5.455h8.073c.243 0 .442-.03.595-.095.155-.064.232-.151.232-.26h.438v1.877h-.438zM66.17 32.36h32.021V0h-32.02z"/>
</svg>