<svg xmlns="http://www.w3.org/2000/svg" width="165" height="56" viewBox="0 0 165 56">
    <g fill="#fff">
        <rect class="square" x="66.12" width="32.76" height="32.76"/>
        <path class="name" d="M165,54.92v-2.1h-6.87V40.43h-3.08V54.92Zm-17,0-9.14-15.06-9.16,15.06h3.23l2.2-3.73h7.49l2.14,3.73Zm-9.8-9c.12-.23.24-.49.35-.76a8.31,8.31,0,0,0,.33-.89,9.25,9.25,0,0,0,.37.92c.12.27.23.52.34.73l1.94,3.3h-5.27Zm-29.64,9V44.85c.28.29.57.58.87.85s.63.53,1,.77l12.26,9V40.43h-2.84v10c-.37-.36-.72-.68-1.06-1s-.67-.55-1-.8l-12-8.86V54.92ZM96,40.43H92.93V54.92H96ZM72.16,54.92H73a27.84,27.84,0,0,0,4.93-.31,8.54,8.54,0,0,0,2.82-1,6.68,6.68,0,0,0,2.49-2.46,6.83,6.83,0,0,0,.85-3.42,7,7,0,0,0-.85-3.44,6.54,6.54,0,0,0-2.49-2.46,8.86,8.86,0,0,0-2.88-1,36.25,36.25,0,0,0-5.69-.31H68V54.92ZM71.09,42.54h2.22a19.53,19.53,0,0,1,3.49.22,5.41,5.41,0,0,1,1.92.73,4.64,4.64,0,0,1,1.61,1.75,5.31,5.31,0,0,1,.53,2.43,5.37,5.37,0,0,1-.53,2.43,4.64,4.64,0,0,1-1.61,1.75,5.44,5.44,0,0,1-1.86.73,17.55,17.55,0,0,1-3.19.22H71.09Zm-20,5.9,6.29,6.48H60.9l-6.51-6.59a5.46,5.46,0,0,0,3.24-1.18,3.5,3.5,0,0,0,1.1-2.73,3.56,3.56,0,0,0-.48-1.82,3.82,3.82,0,0,0-1.35-1.36,5.49,5.49,0,0,0-1.78-.62,18,18,0,0,0-2.93-.19H47.91V54.92h2.88V48.44Zm-.16-6h.56a7.17,7.17,0,0,1,3.18.49,1.79,1.79,0,0,1,.86,1.69,1.6,1.6,0,0,1-.8,1.54,7.87,7.87,0,0,1-3.24.44H51ZM40.83,54.92,31.69,39.86,22.53,54.92h3.23L28,51.19h7.49l2.14,3.73Zm-9.8-9c.12-.23.24-.49.36-.76s.22-.57.33-.89c.12.34.24.65.36.92s.23.52.35.73l1.93,3.3H29.09ZM16.17,41.58a12.91,12.91,0,0,0-2.93-1.12,13.19,13.19,0,0,0-3.18-.37,13.5,13.5,0,0,0-3.94.55,10.09,10.09,0,0,0-3.23,1.61A7.56,7.56,0,0,0,.74,44.71a6.45,6.45,0,0,0,0,6,7.39,7.39,0,0,0,2.13,2.45A10.09,10.09,0,0,0,6.1,54.77a14.24,14.24,0,0,0,4,.54A13.82,13.82,0,0,0,13.28,55,10.18,10.18,0,0,0,16,54V51.29a11,11,0,0,1-2.92,1.38,11.13,11.13,0,0,1-3.19.45A7.39,7.39,0,0,1,5.1,51.6a4.93,4.93,0,0,1,.05-7.82,7.89,7.89,0,0,1,5-1.53,11,11,0,0,1,3.06.43A10.25,10.25,0,0,1,16,44Z"/>
    </g>
</svg>