<svg version="1.1" viewBox="0 0 165 46" xmlns="http://www.w3.org/2000/svg">
    <path class="square" d="m66.167435 32.358771h32.020999v-32.359998h-32.019999z" fill="currentColor"/>
    <path class="name" d="m13.935 44.134c-0.047 0-0.09-2e-3 -0.13-7e-3 -0.04316-0.0049-0.08657-0.0073-0.13-7e-3 -0.096 0-0.321 0.056-0.678 0.167-0.355 0.111-0.807 0.237-1.352 0.376-0.547 0.139-1.168 0.259-1.864 0.361-0.697 0.103-1.425 0.153-2.184 0.153-0.997 0-1.955-0.074-2.873-0.223-0.917-0.147-1.73-0.377-2.434-0.688-0.703-0.31-1.26-0.698-1.672-1.161-0.40468731-0.444851-0.62554661-1.026662-0.618-1.628 0-0.612 0.206-1.152 0.618-1.621 0.411-0.468 0.969-0.86 1.672-1.175 0.705-0.315 1.517-0.552 2.434-0.71 0.9491992-0.160333 1.9103603-0.239287 2.873-0.236 0.807 0 1.539 0.037 2.196 0.111 0.656 0.075 1.23 0.154 1.72 0.237 0.491 0.083 0.88 0.162 1.164 0.237 0.285 0.073 0.459 0.11 0.522 0.11 0.0736 2e-3 0.145408-0.0229 0.202-0.07l0.131-0.11 0.356 0.167-1.852 1.682-0.237-0.097c-1.65e-4 -0.02816-0.0045-0.05614-0.013-0.083-0.0098-0.0333-0.02149-0.06602-0.035-0.098-0.032-0.101-0.19-0.206-0.475-0.313-0.344081-0.122227-0.697145-0.217514-1.056-0.285-0.42-0.083-0.863-0.152-1.33-0.209-1.0661197-0.133154-2.1462044-0.105174-3.204 0.083-0.5489641 0.09335-1.0834498 0.257735-1.59 0.489-0.452 0.213-0.812 0.475-1.081 0.785-0.27 0.31-0.403 0.666-0.403 1.064 0 0.4 0.133 0.753 0.403 1.065 0.27 0.31 0.63 0.572 1.08 0.786 0.451 0.212 0.981 0.374 1.591 0.487 0.609 0.11 1.246 0.166 1.91 0.166 0.507 0 1.037-0.034 1.591-0.104s1.06-0.158 1.52-0.265c0.393635-0.08588 0.778827-0.206692 1.151-0.361 0.309-0.135 0.463-0.263 0.463-0.383 0-0.064-0.032-0.12-0.096-0.167l0.333-0.111 1.567 1.475-0.19 0.11zm17.669-2.078-2.044-2.509-2.289 2.51h4.333zm-9.176 2.508c0.211-0.018 0.377-0.075 0.5-0.175 0.12-0.099 0.238-0.211 0.352-0.337l4.503-5.246c0.113-0.117 0.215-0.225 0.304-0.323 0.09-0.1 0.134-0.184 0.134-0.257 0-0.09-0.057-0.154-0.171-0.189-0.119041-0.03643-0.240744-0.06351-0.364-0.081v-0.243h4.113v0.243c-0.114546 0.01872-0.228034 0.04342-0.34 0.074-0.115 0.032-0.17 0.097-0.17 0.196 0 0.073 0.027 0.144 0.084 0.215 0.057 0.073 0.142 0.167 0.256 0.284l5.063 5.488c0.08 0.1 0.19 0.171 0.328 0.216 0.137 0.045 0.296 0.09 0.474 0.135v0.243h-4.284v-0.243c0.08239-0.0028 0.164061-0.01626 0.243-0.04 0.098-0.027 0.145-0.068 0.145-0.122 0-0.09-0.064-0.207-0.193-0.35l-0.926-0.998h-5.939l-0.876 0.957c-0.162 0.19-0.243 0.324-0.243 0.405 0 0.1 0.154 0.148 0.462 0.148v0.243h-3.456v-0.243zm31.104-3.694c0.576 0 1.057-0.025 1.442-0.075 0.384-0.05 0.688-0.119 0.913-0.209 0.224-0.09 0.384-0.195 0.481-0.317 0.09246-0.112091 0.143334-0.252697 0.144-0.398-7.32e-4 -0.144989-0.05161-0.285258-0.144-0.397-0.097-0.122-0.257-0.227-0.48-0.317-0.226-0.09-0.53-0.16-0.914-0.21-0.478653-0.05472-0.96026-0.07943-1.442-0.074h-4.158v1.996h4.158zm0.625-3.157c0.769 0 1.466 0.039 2.09 0.115 0.625 0.076 1.162 0.198 1.61 0.364 0.45 0.166 0.794 0.382 1.034 0.647 0.241 0.266 0.36 0.592 0.36 0.979 0 0.592-0.311 1.046-0.936 1.362-0.625 0.314-1.467 0.526-2.524 0.633l3.196 2.563c0.113 0.09 0.245 0.143 0.397 0.162 0.152 0.018 0.293 0.026 0.42 0.026v0.243h-4.493v-0.243c0.143 0 0.267-0.013 0.372-0.04 0.104-0.028 0.156-0.063 0.156-0.108s-0.032-0.097-0.096-0.155c-0.09354-0.08244-0.190276-0.161167-0.29-0.236l-2.642-2.104h-3.438v2.4c0 0.081 0.053 0.142 0.157 0.182 0.103 0.041 0.292 0.061 0.564 0.061v0.243h-4.158v-0.243c0.465 0 0.697-0.081 0.697-0.243v-6.122c0-0.162-0.232-0.243-0.697-0.243v-0.243h8.22zm21.555 5.935c0.772 0 1.444-0.037 2.019-0.109 0.574-0.071 1.05-0.2 1.428-0.384s0.66-0.43 0.85-0.735c0.188-0.306 0.283-0.692 0.283-1.16 0-0.467-0.095-0.853-0.283-1.16-0.19-0.305-0.472-0.55-0.85-0.734-0.377-0.185-0.854-0.313-1.428-0.384-0.670094-0.07811-1.344392-0.114509-2.019-0.109h-3.817v4.775zm0.985-5.934c0.902 0 1.744 0.072 2.524 0.215 0.78 0.144 1.456 0.363 2.032 0.655 0.573 0.291 1.025 0.66 1.353 1.105s0.493 0.969 0.493 1.571c0 0.603-0.165 1.127-0.493 1.572s-0.78 0.814-1.353 1.105c-0.576 0.292-1.253 0.51-2.032 0.655-0.833058 0.148174-1.677883 0.220138-2.524 0.215h-8.175v-0.242c0.378 0 0.567-0.082 0.567-0.244v-6.121c0-0.161-0.19-0.243-0.567-0.243v-0.242h8.175zm15.49 6.851c0.422 0 0.633-0.082 0.633-0.244v-6.121c0-0.162-0.21-0.243-0.633-0.243v-0.242h4.044v0.242c-0.423 0-0.634 0.08-0.634 0.243v6.122c0 0.162 0.21 0.244 0.634 0.244v0.242h-4.044v-0.242zm13.446 0c0.306 0 0.459-0.082 0.459-0.244v-6.121c0-0.162-0.153-0.243-0.46-0.243v-0.242h4.14v0.242c-0.13 0-0.194 0.045-0.194 0.135 0 0.072 0.162 0.198 0.484 0.378l6.949 4.018v-4.288c0-0.162-0.21-0.243-0.63-0.243v-0.242h3.655v0.242c-0.306 0-0.46 0.08-0.46 0.243v6.122c0 0.162 0.154 0.244 0.46 0.244v0.242h-3.921v-0.242c0.21 0 0.314-0.04 0.314-0.122 0-0.062-0.13-0.166-0.387-0.31l-7.384-4.289v4.477c0 0.162 0.185 0.244 0.556 0.244v0.242h-3.581v-0.242zm32.197-2.468-2.08-2.471-2.327 2.471zm-9.334 2.471c0.214-0.017 0.384-0.076 0.507-0.173 0.124-0.097 0.244-0.207 0.36-0.332l4.58-5.168c0.114-0.115 0.219-0.222 0.31-0.319 0.09-0.097 0.135-0.18 0.135-0.253 0-0.088-0.058-0.15-0.173-0.185-0.12133-0.03654-0.24539-0.06329-0.371-0.08v-0.239h4.184v0.239c-0.11684 0.01835-0.23267 0.04272-0.347 0.073-0.116 0.03-0.173 0.096-0.173 0.192 0 0.072 0.029 0.143 0.086 0.213 0.058 0.071 0.145 0.164 0.26 0.28l5.15 5.407c0.0891 0.101409 0.20535 0.175297 0.335 0.213 0.14 0.044 0.3 0.088 0.482 0.132v0.24h-4.357v-0.24c0.066 0 0.148-0.013 0.247-0.04 0.1-0.026 0.149-0.066 0.149-0.12 0-0.088-0.067-0.203-0.197-0.345l-0.942-0.982h-6.04l-0.892 0.943c-0.165 0.186-0.247 0.319-0.247 0.398 0 0.097 0.156 0.146 0.469 0.146v0.24h-3.515zm35.551 0.568c0-0.137-0.077-0.215-0.232-0.233-0.19766-0.02023-0.39632-0.02924-0.595-0.027h-11.575v-0.247c0.486 0 0.73-0.083 0.73-0.248v-6.221c0-0.165-0.244-0.246-0.73-0.246v-0.247h4.183v0.247c-0.454 0-0.681 0.081-0.681 0.246v5.455h8.073c0.243 0 0.442-0.03 0.595-0.095 0.155-0.064 0.232-0.151 0.232-0.26h0.438v1.877h-0.438z" fill="currentColor"/>
</svg>