<svg xmlns="http://www.w3.org/2000/svg" width="359" height="114" viewBox="0 0 359 114">
    <g fill="none" fill-rule="evenodd">
        <path fill="#1D1D1B" d="M30.377 89.044c-.104 0-.198-.004-.284-.012a2.413 2.413 0 0 0-.285-.015c-.207 0-.699.111-1.476.336a63.14 63.14 0 0 1-2.949.758 43.651 43.651 0 0 1-4.063.728c-1.52.207-3.106.31-4.762.31a42.24 42.24 0 0 1-6.261-.449c-2.001-.3-3.77-.763-5.306-1.39-1.535-.626-2.75-1.406-3.649-2.34-.896-.938-1.346-2.03-1.346-3.285 0-1.233.45-2.323 1.346-3.266.898-.944 2.114-1.736 3.649-2.371 1.536-.637 3.305-1.113 5.306-1.432a39.788 39.788 0 0 1 6.26-.476c1.761 0 3.356.074 4.79.225a74.08 74.08 0 0 1 3.751.476c1.068.167 1.916.327 2.535.478.622.15 1 .224 1.139.224.174 0 .32-.046.442-.14l.284-.225.775.338-4.036 3.393-.52-.197a.526.526 0 0 0-.024-.167 1.397 1.397 0 0 0-.078-.198c-.069-.205-.414-.417-1.036-.63-.62-.214-1.388-.407-2.302-.575a39.21 39.21 0 0 0-2.897-.421 25.662 25.662 0 0 0-2.822-.17c-1.449 0-2.839.113-4.166.338-1.329.226-2.484.55-3.468.983-.982.43-1.769.958-2.355 1.584-.586.627-.88 1.342-.88 2.147 0 .805.294 1.517.88 2.146.586.627 1.373 1.155 2.355 1.585.984.432 2.14.757 3.468.981 1.327.224 2.717.337 4.166.337 1.105 0 2.26-.07 3.468-.211a34.212 34.212 0 0 0 3.312-.533c1-.216 1.838-.459 2.51-.73.674-.272 1.01-.527 1.01-.77 0-.13-.07-.244-.206-.338l.724-.222 3.416 2.972-.415.224zM68.898 84.854l-4.457-5.06-4.988 5.06h9.445zm-20.005 5.058c.46-.035.822-.155 1.088-.352.264-.201.52-.425.769-.681l9.817-10.58c.247-.234.469-.454.663-.651.195-.202.293-.373.293-.52 0-.178-.125-.308-.372-.38a5.497 5.497 0 0 0-.796-.163v-.489h8.968v.489a8.32 8.32 0 0 0-.743.149c-.25.065-.37.197-.37.394 0 .147.06.293.183.436.124.147.31.335.557.572l11.038 11.07c.176.199.416.344.718.434.3.092.645.182 1.034.272v.489H72.4v-.489c.142 0 .318-.027.53-.081.213-.055.32-.137.32-.246 0-.18-.143-.417-.425-.706l-2.016-2.012H57.862l-1.91 1.93c-.355.382-.53.652-.53.816 0 .2.335.3 1.004.3v.488h-7.533v-.489zM116.703 82.46c1.258 0 2.305-.049 3.144-.15.837-.098 1.501-.239 1.99-.421.49-.18.838-.394 1.05-.64.209-.245.314-.51.314-.802 0-.29-.105-.558-.314-.8-.212-.246-.56-.46-1.05-.64-.489-.18-1.153-.323-1.99-.424-.84-.098-1.886-.148-3.144-.148h-9.066v4.024h9.066zm1.36-6.365c1.68 0 3.2.078 4.562.23 1.36.156 2.53.401 3.508.737.98.335 1.731.77 2.255 1.305.525.535.787 1.193.787 1.973 0 1.197-.683 2.11-2.045 2.746-1.363.635-3.197 1.06-5.501 1.279l6.968 5.167c.245.18.534.291.864.327.331.035.637.054.917.054v.489h-9.798v-.489c.314 0 .584-.027.812-.082.228-.054.341-.127.341-.218 0-.09-.069-.195-.21-.312-.14-.12-.35-.277-.63-.476l-5.762-4.242h-7.494v4.84c0 .163.113.285.342.366.226.082.636.124 1.23.124v.489h-9.065v-.489c1.013 0 1.52-.163 1.52-.49V77.074c0-.327-.507-.488-1.52-.488v-.49h17.92zM165.058 88.063c1.683 0 3.148-.071 4.402-.218 1.252-.145 2.29-.403 3.113-.776.823-.37 1.44-.863 1.852-1.482.41-.616.618-1.396.618-2.339 0-.941-.207-1.723-.618-2.34-.412-.614-1.03-1.108-1.852-1.481-.823-.371-1.86-.63-3.113-.776-1.254-.145-2.719-.216-4.402-.216h-8.32v9.628h8.32zm2.148-11.967c1.968 0 3.801.144 5.5.436 1.7.29 3.176.73 4.43 1.318 1.252.59 2.236 1.333 2.952 2.23.716.898 1.074 1.954 1.074 3.168 0 1.216-.358 2.272-1.074 3.17-.716.897-1.7 1.64-2.952 2.23-1.254.589-2.73 1.029-4.43 1.318-1.699.292-3.532.436-5.5.436h-17.822v-.49c.823 0 1.235-.164 1.235-.49V77.074c0-.327-.412-.49-1.235-.49v-.49h17.822zM200.977 89.912c.92 0 1.38-.163 1.38-.49V77.073c0-.325-.46-.488-1.38-.488v-.489h8.815v.489c-.921 0-1.381.163-1.381.488v12.349c0 .327.46.49 1.381.49v.489h-8.815v-.489zM230.29 89.912c.667 0 1.002-.163 1.002-.49V77.073c0-.325-.335-.488-1.003-.488v-.489h9.024v.489c-.28 0-.423.092-.423.272 0 .145.352.399 1.055.761l15.149 8.106v-8.65c0-.326-.458-.49-1.373-.49v-.488h7.969v.489c-.668 0-1.003.163-1.003.488v12.349c0 .327.335.49 1.003.49v.489h-8.549v-.489c.456 0 .687-.081.687-.245 0-.126-.283-.333-.844-.627l-16.1-8.646v9.028c0 .327.405.49 1.213.49v.489h-7.808v-.489zM300.482 84.936l-4.532-4.985-5.074 4.985h9.606zm-20.348 4.983c.467-.036.837-.151 1.107-.348.27-.195.53-.42.783-.67l9.985-10.423c.25-.23.477-.447.674-.642.199-.197.297-.367.297-.51 0-.177-.128-.303-.379-.376a5.714 5.714 0 0 0-.806-.16v-.482h9.12v.482a7.876 7.876 0 0 0-.755.147c-.254.063-.38.193-.38.39 0 .142.064.285.19.428.125.144.313.33.567.563l11.228 10.905c.18.197.423.34.728.43.306.087.657.178 1.05.266v.482h-9.498v-.482c.144 0 .322-.026.54-.08.215-.055.322-.134.322-.241 0-.178-.142-.411-.431-.696l-2.05-1.983h-13.17l-1.942 1.903c-.363.373-.54.642-.54.803 0 .197.34.294 1.023.294v.482h-7.663v-.482zM357.637 91.065c0-.277-.167-.434-.502-.47a12.136 12.136 0 0 0-1.3-.054h-25.232v-.5c1.06 0 1.589-.165 1.589-.498V76.995c0-.333-.53-.499-1.589-.499V76h9.116v.496c-.988 0-1.484.166-1.484.5v11h17.6c.534 0 .963-.063 1.3-.193.335-.128.502-.304.502-.526h.955v3.788h-.955z"/>
        <path fill="#B81918" d="M144.257 65.3h69.81V.038h-69.81z"/>
        <path fill="#000" d="M56.03 107.47c0-.524-.153-.952-.457-1.281-.31-.333-.699-.501-1.166-.501-.498 0-.902.161-1.21.484-.307.323-.462.744-.462 1.27 0 .514.155.938.463 1.27.303.326.705.49 1.203.49.47 0 .854-.166 1.16-.495.312-.33.469-.743.469-1.237zm-3.218 5.682H51.46V104.7h1.352v.595c.534-.497 1.14-.746 1.817-.746.806 0 1.468.276 1.989.832.53.551.795 1.245.795 2.086 0 .82-.263 1.503-.789 2.052-.521.54-1.178.813-1.972.813-.684 0-1.297-.256-1.84-.77v3.591zM66.232 104.7h1.353v.487c.249-.243.469-.408.661-.498.197-.095.43-.14.697-.14.356 0 .73.106 1.118.324l-.618 1.16c-.257-.175-.506-.26-.753-.26-.737 0-1.105.521-1.105 1.563v2.838h-1.353V104.7zM79.333 107.42c0 .547.154.98.468 1.3.32.32.743.481 1.269.481.53 0 .952-.159 1.268-.478.316-.318.476-.744.476-1.276 0-.53-.16-.956-.476-1.275-.32-.322-.743-.484-1.268-.484-.517 0-.936.162-1.258.484-.32.323-.48.738-.48 1.248m-1.383-.023c0-.79.301-1.463.908-2.019.605-.553 1.342-.83 2.213-.83.873 0 1.614.279 2.225.836.6.558.9 1.245.9 2.059 0 .82-.301 1.507-.906 2.062-.61.55-1.359.826-2.244.826-.877 0-1.614-.28-2.206-.842-.593-.556-.89-1.252-.89-2.092M92.99 104.7h1.353v.504c.262-.253.483-.425.668-.515.196-.095.443-.14.739-.14.661 0 1.184.267 1.57.808.424-.54 1-.809 1.726-.809 1.317 0 1.976.746 1.976 2.243v3.383h-1.358v-3.041c0-.524-.067-.895-.203-1.113-.142-.22-.37-.332-.693-.332-.37 0-.643.133-.814.395-.17.262-.256.683-.256 1.264v2.827H96.34v-3.025c0-.972-.3-1.46-.902-1.46-.381 0-.66.134-.833.4-.174.264-.262.683-.262 1.258v2.827H92.99V104.7zM111.163 107.42c0 .547.157.98.47 1.3.32.32.742.481 1.268.481.53 0 .952-.159 1.27-.478.314-.318.476-.744.476-1.276 0-.53-.162-.956-.476-1.275-.322-.322-.745-.484-1.27-.484-.517 0-.936.162-1.256.484-.32.323-.482.738-.482 1.248m-1.383-.023c0-.79.303-1.463.908-2.019.605-.553 1.344-.83 2.213-.83.875 0 1.616.279 2.225.836.6.558.902 1.245.902 2.059 0 .82-.303 1.507-.908 2.062-.61.55-1.357.826-2.242.826-.88 0-1.614-.28-2.207-.842-.594-.556-.891-1.252-.891-2.092M126.217 105.88v4.294h-1.353v-4.295h-.577v-1.18h.577v-2.008h1.353v2.008h1.053v1.18zM139.535 106.7c-.189-.675-.645-1.01-1.365-1.01-.164 0-.318.023-.465.069a1.371 1.371 0 0 0-.393.201 1.373 1.373 0 0 0-.304.319 1.432 1.432 0 0 0-.19.421h2.717zm1.39 1.033h-4.2c.038.451.193.81.47 1.074.278.264.631.394 1.065.394.337 0 .615-.074.835-.224.218-.15.463-.428.74-.833l1.142.598c-.176.279-.362.52-.56.72a2.883 2.883 0 0 1-.63.496c-.225.13-.468.224-.728.282a3.73 3.73 0 0 1-.847.09c-.873 0-1.577-.261-2.104-.785-.53-.529-.796-1.229-.796-2.103 0-.866.258-1.568.77-2.102.518-.529 1.202-.793 2.056-.793.863 0 1.545.258 2.045.77.497.509.748 1.215.748 2.12l-.007.296zM151.094 104.7v3.141c0 .908.384 1.36 1.148 1.36.766 0 1.149-.452 1.149-1.36V104.7h1.352v3.17c0 .44-.059.817-.174 1.136-.113.285-.305.54-.584.769-.456.373-1.038.557-1.743.557-.702 0-1.28-.184-1.738-.557a1.932 1.932 0 0 1-.594-.77c-.113-.253-.168-.632-.168-1.136V104.7h1.352zM163.9 104.7h1.352v.487c.25-.243.471-.408.662-.498.197-.095.43-.14.697-.14.358 0 .73.106 1.12.324l-.62 1.16c-.257-.175-.506-.26-.751-.26-.737 0-1.108.521-1.108 1.563v2.838H163.9V104.7zM187.133 110.174h1.352V104.7h-1.352v5.475zm-.205-7.751c0-.22.086-.413.257-.573a.874.874 0 0 1 .62-.243c.245 0 .454.082.626.243.171.155.26.35.26.579a.776.776 0 0 1-.26.585.862.862 0 0 1-.62.24.88.88 0 0 1-.626-.24.78.78 0 0 1-.257-.591zM197.586 104.7h1.352v.504c.262-.253.484-.425.668-.515.197-.095.444-.14.739-.14.664 0 1.185.267 1.57.808.425-.54 1-.809 1.727-.809 1.317 0 1.978.746 1.978 2.243v3.383h-1.36v-3.041c0-.524-.068-.895-.204-1.113-.142-.22-.37-.332-.69-.332-.375 0-.647.133-.817.395-.17.262-.255.683-.255 1.264v2.827h-1.359v-3.025c0-.972-.301-1.46-.902-1.46-.38 0-.66.134-.833.4-.176.264-.262.683-.262 1.258v2.827h-1.352V104.7zM214.653 104.7h1.352v.504c.262-.253.484-.425.668-.515.197-.095.444-.14.739-.14.663 0 1.185.267 1.57.808.425-.54 1-.809 1.727-.809 1.316 0 1.976.746 1.976 2.243v3.383h-1.359v-3.041c0-.524-.069-.895-.203-1.113-.142-.22-.372-.332-.69-.332-.375 0-.647.133-.817.395-.17.262-.255.683-.255 1.264v2.827h-1.359v-3.025c0-.972-.301-1.46-.902-1.46-.381 0-.66.134-.833.4-.176.264-.262.683-.262 1.258v2.827h-1.352V104.7zM232.828 107.42c0 .547.155.98.469 1.3.32.32.74.481 1.266.481.53 0 .953-.159 1.27-.478.317-.318.474-.744.474-1.276 0-.53-.157-.956-.473-1.275-.323-.322-.745-.484-1.27-.484-.518 0-.936.162-1.257.484-.32.323-.48.738-.48 1.248m-1.383-.023c0-.79.302-1.463.907-2.019.607-.553 1.344-.83 2.212-.83.875 0 1.616.279 2.227.836.601.558.9 1.245.9 2.059 0 .82-.3 1.507-.906 2.062-.609.55-1.358.826-2.244.826-.879 0-1.614-.28-2.206-.842-.595-.556-.89-1.252-.89-2.092M251.054 107.476c0-.524-.15-.952-.457-1.28a1.505 1.505 0 0 0-1.16-.508c-.497 0-.901.163-1.215.488-.308.323-.46.742-.46 1.26 0 .532.15.958.455 1.277.304.325.704.488 1.202.488a1.54 1.54 0 0 0 1.166-.488c.314-.33.469-.742.469-1.237zm-3.215-6.796v4.656c.54-.526 1.153-.788 1.84-.788.789 0 1.446.274 1.971.825.524.548.787 1.229.787 2.046 0 .843-.265 1.54-.793 2.092-.525.545-1.189.82-1.99.82-.677 0-1.282-.243-1.815-.73v.573h-1.355v-9.494h1.355zM261.257 110.174h1.352V104.7h-1.352v5.475zm-.205-7.751a.76.76 0 0 1 .26-.573.874.874 0 0 1 .619-.243.89.89 0 0 1 .626.243c.171.155.257.35.257.579a.774.774 0 0 1-.257.585.866.866 0 0 1-.62.24.88.88 0 0 1-.626-.24.783.783 0 0 1-.26-.591zM271.71 110.174h1.353v-9.493h-1.353zM282.168 110.174h1.352V104.7h-1.352v5.475zm-.207-7.751c0-.22.086-.413.257-.573a.882.882 0 0 1 .62-.243c.247 0 .454.082.626.243.174.155.26.35.26.579a.768.768 0 0 1-.26.585.859.859 0 0 1-.62.24.887.887 0 0 1-.626-.24.78.78 0 0 1-.257-.591zM296.565 106.7c-.19-.675-.644-1.01-1.364-1.01-.164 0-.32.023-.465.069a1.331 1.331 0 0 0-.697.52 1.492 1.492 0 0 0-.193.421h2.72zm1.388 1.033h-4.197c.038.451.193.81.47 1.074.278.264.631.394 1.065.394.337 0 .615-.074.835-.224.218-.15.462-.428.74-.833l1.142.598a4.45 4.45 0 0 1-.56.72 2.845 2.845 0 0 1-.631.496c-.224.13-.467.224-.729.282-.26.061-.54.09-.845.09-.875 0-1.577-.261-2.106-.785-.53-.529-.794-1.229-.794-2.103 0-.866.256-1.568.77-2.102.518-.529 1.202-.793 2.056-.793.863 0 1.543.258 2.045.77.496.509.746 1.215.746 2.12l-.007.296zM306.772 104.7h1.352v.487c.25-.243.47-.408.662-.498.197-.095.429-.14.697-.14.358 0 .73.106 1.118.324l-.62 1.16c-.255-.175-.507-.26-.75-.26-.738 0-1.107.521-1.107 1.563v2.838h-1.352V104.7z"/>
    </g>
</svg>
